<?xml version="1.0" encoding="UTF-8"?>
<svg width="78px" height="99px" viewBox="0 0 78 99" version="1.1" xmlns="http://www.w3.org/2000/svg" xmlns:xlink="http://www.w3.org/1999/xlink">
    <!-- Generator: Sketch 45.2 (43514) - http://www.bohemiancoding.com/sketch -->
    <title>Upload V2</title>
    <desc>Created with Sketch.</desc>
    <defs></defs>
    <g id="Page-1" stroke="none" stroke-width="1" fill="none" fill-rule="evenodd">
        <g id="Group-19" transform="translate(-208.000000, -388.000000)" fill-rule="nonzero" fill="#FFFFFF">
            <g id="Upload-Screen" transform="translate(82.000000, 263.000000)">
                <g id="Group-18" transform="translate(96.000000, 125.000000)">
                    <g id="Upload-V2" transform="translate(30.000000, 0.000000)">
                        <g id="Group" transform="translate(39.083211, 52.808763) scale(1, -1) translate(-39.083211, -52.808763) translate(24.583211, 34.808763)">
                            <path d="M14.6063328,35.4437063 L14.6063328,35.4437063 C13.8136966,35.4437063 13.1703976,34.8088095 13.1703976,34.0265259 L13.1732695,2.05776943 C13.1732695,1.27548582 13.8165685,0.640588985 14.6092047,0.640588985 L14.6092047,0.640588985 C15.4018409,0.640588985 16.0451399,1.27548582 16.0451399,2.05776943 L16.042268,34.0265259 C16.042268,34.8088095 15.3989691,35.4437063 14.6063328,35.4437063 Z" id="Shape"></path>
                            <path d="M26.9927099,15.696714 C26.6251105,15.696714 26.257511,15.5578303 25.9760677,15.2828973 L14.6063328,4.06166258 L3.23659794,15.2828973 C2.67658321,15.8355977 1.76620029,15.8355977 1.20618557,15.2828973 C0.646170839,14.730197 0.646170839,13.8317046 1.20618557,13.2790042 L13.5925626,1.05440567 C14.1525773,0.501705301 15.0629602,0.501705301 15.622975,1.05440567 L28.009352,13.2790042 C28.5693667,13.8317046 28.5693667,14.730197 28.009352,15.2828973 C27.7279087,15.5578303 27.3603093,15.696714 26.9927099,15.696714 Z" id="Shape"></path>
                        </g>
                        <g id="Group">
                            <path d="M48.2474227,94.364377 L7.79712813,94.364377 C3.83969072,94.364377 0.617452135,91.1870584 0.617452135,87.2784748 L0.617452135,7.08590222 C0.617452135,3.17731855 3.83969072,0 7.79712813,0 L53.3938144,0 C54.1864507,0 54.8297496,0.634896839 54.8297496,1.41718044 C54.8297496,2.19946405 54.1864507,2.83436089 53.3938144,2.83436089 L7.79712813,2.83436089 C5.42209131,2.83436089 3.48932253,4.74188576 3.48932253,7.08590222 L3.48932253,87.2784748 C3.48932253,89.6224912 5.42209131,91.5300161 7.79712813,91.5300161 L48.2474227,91.5300161 L48.2474227,94.364377 Z M72.371134,91.1469702 C73.8573655,90.4757267 74.8926362,88.9940022 74.8926362,87.2784748 L74.8926362,24.6702772 C74.8926362,23.8879936 75.5359352,23.2530967 76.3285714,23.2530967 C77.1212077,23.2530967 77.7645066,23.8879936 77.7645066,24.6702772 L77.7645066,87.2813091 C77.7645066,90.5790451 75.4694496,93.3574895 72.371134,94.142622 L72.371134,91.1469702 Z" id="Combined-Shape"></path>
                            <g id="Group-8" transform="translate(51.984265, 78.604333)">
                                <path d="M15.2253634,8.2832417 L14.8176549,8.2832417 L14.8176549,6.46746062 C14.8176549,3.10903467 12.0168731,0.303548993 8.51622901,0.243661107 C8.4205783,0.242024826 8.22944883,0.242024826 8.13384111,0.243661107 C4.63311104,0.303548993 1.83237222,3.10903467 1.83237222,6.46746062 L1.83237222,8.2832417 L1.42462076,8.2832417 C0.79629231,8.2832417 0.283776451,8.90020147 0.283776451,9.66217665 L0.283776451,18.7693897 C0.283776451,19.5305059 0.79629231,20.1532335 1.42466375,20.1532335 L15.2253634,20.1532335 C15.8536918,20.1532335 16.3662507,19.5305059 16.3662507,18.7693897 L16.3662507,9.66217665 C16.3662507,8.90024238 15.8537348,8.2832417 15.2253634,8.2832417 Z M9.61795325,14.2065382 L9.61795325,16.9583948 C9.61795325,17.2735016 9.34071665,17.5401745 9.0093138,17.5401745 L7.64079931,17.5401745 C7.30935347,17.5401745 7.03211687,17.2735016 7.03211687,16.9583948 L7.03211687,14.2065382 C6.71068749,13.9054625 6.523556,13.4891517 6.523556,13.0286204 C6.523556,12.1559099 7.23248899,11.4060023 8.1338841,11.371354 C8.22940584,11.3676724 8.42075025,11.3676724 8.516272,11.371354 C9.41766711,11.4060023 10.1266001,12.1559099 10.1266001,13.0286204 C10.1265141,13.4891517 9.93938263,13.9054625 9.61795325,14.2065382 Z M12.1304073,8.2832417 L8.51622901,8.2832417 L8.13384111,8.2832417 L4.51966285,8.2832417 L4.51966285,6.46746062 C4.51966285,4.4669025 6.228221,2.81274508 8.32501356,2.81274508 C10.4218061,2.81274508 12.1304503,4.4669025 12.1304503,6.46746062 L12.1304503,8.2832417 L12.1304073,8.2832417 Z" id="Shape"></path>
                            </g>
                            <path d="M76.6387334,26.2688333 L53.7039764,26.2688333 C52.9113402,26.2688333 52.2680412,25.6339364 52.2680412,24.8516528 L52.2680412,2.21361243 C52.2680412,1.43132882 52.9113402,0.796431985 53.7039764,0.796431985 C54.4966127,0.796431985 55.1399116,1.43132882 55.1399116,2.21361243 L55.1399116,23.431638 L76.6387334,23.431638 C77.4313697,23.431638 77.4342415,26.2688333 76.6387334,26.2688333 Z" id="Shape"></path>
                            <path d="M76.3285714,26.0874576 C75.9552283,26.0874576 75.5818851,25.9429052 75.3004418,25.6594691 L52.3656848,2.40920675 C51.8142857,1.85083766 51.8257732,0.949510897 52.3944035,0.405313607 C52.960162,-0.141718044 53.8705449,-0.12754624 54.4248159,0.433657216 L77.3595729,23.6839196 C77.910972,24.2422887 77.8994845,25.1436154 77.3308542,25.6878127 C77.0522828,25.9542426 76.6904271,26.0874576 76.3285714,26.0874576 Z" id="Shape"></path>
                        </g>
                    </g>
                </g>
            </g>
        </g>
    </g>
</svg>