<svg width="100%" height="100%" viewBox="0 0 97 129" version="1.1" xmlns="http://www.w3.org/2000/svg" xmlns:xlink="http://www.w3.org/1999/xlink">
    <!-- Generator: Sketch 45.2 (43514) - http://www.bohemiancoding.com/sketch -->
    <title>Upload V2</title>
    <desc>Created with Sketch.</desc>
    <defs></defs>
    <g id="Page-1" stroke="none" stroke-width="1" fill="none" fill-rule="evenodd">
        <g id="Group-17" transform="translate(-266.000000, -251.000000)">
            <g id="Group-16" transform="translate(150.000000, 150.000000)">
                <g id="Upload-Screen">
                    <g id="Group-2" transform="translate(62.000000, 101.000000)">
                        <g id="Upload-V2" transform="translate(54.000000, 0.000000)">
                            <g id="Group" transform="translate(48.571429, 66.205882) scale(1, -1) translate(-48.571429, -66.205882) translate(30.571429, 43.705882)" fill-rule="nonzero" fill="#FFFFFF">
                                <path d="M18.1642857,44.5031176 L18.1642857,44.5031176 C17.1785714,44.5031176 16.3785714,43.7059412 16.3785714,42.7237059 L16.3821429,2.58373529 C16.3821429,1.6015 17.1821429,0.804323529 18.1678571,0.804323529 L18.1678571,0.804323529 C19.1535714,0.804323529 19.9535714,1.6015 19.9535714,2.58373529 L19.95,42.7237059 C19.95,43.7059412 19.15,44.5031176 18.1642857,44.5031176 Z" id="Shape"></path>
                                <path d="M33.5678571,19.7087941 C33.1107143,19.7087941 32.6535714,19.5344118 32.3035714,19.1892059 L18.1642857,5.09982353 L4.025,19.1892059 C3.32857143,19.8831765 2.19642857,19.8831765 1.5,19.1892059 C0.803571429,18.4952353 0.803571429,17.3670882 1.5,16.6731176 L16.9035714,1.32391176 C17.6,0.629941176 18.7321429,0.629941176 19.4285714,1.32391176 L34.8321429,16.6731176 C35.5285714,17.3670882 35.5285714,18.4952353 34.8321429,19.1892059 C34.4821429,19.5344118 34.025,19.7087941 33.5678571,19.7087941 Z" id="Shape"></path>
                            </g>
                            <g id="Group">
                                <path d="M87.7785714,118.483912 L9.69642857,118.483912 C4.775,118.483912 0.767857143,114.494471 0.767857143,109.586853 L0.767857143,8.89705882 C0.767857143,3.98944118 4.775,0 9.69642857,0 L66.4,0 C67.3857143,0 68.1857143,0.797176471 68.1857143,1.77941176 C68.1857143,2.76164706 67.3857143,3.55882353 66.4,3.55882353 L9.69642857,3.55882353 C6.74285714,3.55882353 4.33928571,5.95391176 4.33928571,8.89705882 L4.33928571,109.586853 C4.33928571,112.53 6.74285714,114.925088 9.69642857,114.925088 L87.7785714,114.925088 C90.7321429,114.925088 93.1357143,112.53 93.1357143,109.586853 L93.1357143,30.976 C93.1357143,29.9937647 93.9357143,29.1965882 94.9214286,29.1965882 C95.9071429,29.1965882 96.7071429,29.9937647 96.7071429,30.976 L96.7071429,109.590412 C96.7071429,114.494471 92.7035714,118.483912 87.7785714,118.483912 Z" id="Shape" fill="#FFFFFF" fill-rule="nonzero"></path>
                                <g id="Group-8" transform="translate(60.000000, 94.000000)">
                                    <rect id="Rectangle-5" fill="#101D42" x="0" y="0" width="30" height="35"></rect>
                                    <path d="M23.5812043,15.0960383 L23.0741822,15.0960383 L23.0741822,12.8161436 C23.0741822,8.59930393 19.5911587,5.07673612 15.2377936,5.00154089 C15.1188433,4.99948637 14.8811567,4.99948637 14.7622599,5.00154089 C10.4087879,5.07673612 6.92581782,8.59930393 6.92581782,12.8161436 L6.92581782,15.0960383 L6.41874228,15.0960383 C5.63735946,15.0960383 5,15.870693 5,16.827429 L5,28.2624457 C5,29.2181031 5.63735946,30 6.41879574,30 L23.5812043,30 C24.3625871,30 25,29.2181031 25,28.2624457 L25,16.827429 C25,15.8707443 24.3626405,15.0960383 23.5812043,15.0960383 Z M16.6078865,22.5333294 L16.6078865,25.9885605 C16.6078865,26.3842086 16.2631179,26.7190431 15.8509888,26.7190431 L14.1491182,26.7190431 C13.7369355,26.7190431 13.3921669,26.3842086 13.3921669,25.9885605 L13.3921669,22.5333294 C12.9924406,22.1552987 12.7597259,21.6325788 12.7597259,21.0543357 C12.7597259,19.9585604 13.6413476,19.0169765 14.7623134,18.9734721 C14.8811032,18.9688495 15.1190572,18.9688495 15.237847,18.9734721 C16.3588127,19.0169765 17.2404345,19.9585604 17.2404345,21.0543357 C17.2403276,21.6325788 17.0076128,22.1552987 16.6078865,22.5333294 Z M19.7323486,15.0960383 L15.2377936,15.0960383 L14.7622599,15.0960383 L10.2677049,15.0960383 L10.2677049,12.8161436 C10.2677049,10.3042428 12.3924503,8.22728272 15,8.22728272 C17.6075497,8.22728272 19.732402,10.3042428 19.732402,12.8161436 L19.732402,15.0960383 L19.7323486,15.0960383 Z" id="Shape" fill="#FFFFFF" fill-rule="nonzero"></path>
                                </g>
                                <path d="M95.3071429,32.9831471 L66.7857143,32.9831471 C65.8,32.9831471 65,32.1859706 65,31.2037353 L65,2.77941176 C65,1.79717647 65.8,1 66.7857143,1 C67.7714286,1 68.5714286,1.79717647 68.5714286,2.77941176 L68.5714286,29.4207647 L95.3071429,29.4207647 C96.2928571,29.4207647 96.2964286,32.9831471 95.3071429,32.9831471 Z" id="Shape" fill="#FFFFFF" fill-rule="nonzero"></path>
                                <path d="M94.9214286,32.7554118 C94.4571429,32.7554118 93.9928571,32.5739118 93.6428571,32.2180294 L65.1214286,3.025 C64.4357143,2.32391176 64.45,1.19220588 65.1571429,0.508911765 C65.8607143,-0.177941176 66.9928571,-0.160147059 67.6821429,0.5445 L96.2035714,29.7375294 C96.8892857,30.4386176 96.875,31.5703235 96.1678571,32.2536176 C95.8214286,32.5881471 95.3714286,32.7554118 94.9214286,32.7554118 Z" id="Shape" fill="#FFFFFF" fill-rule="nonzero"></path>
                            </g>
                        </g>
                    </g>
                </g>
            </g>
        </g>
    </g>
</svg>
