<?xml version="1.0" encoding="UTF-8"?>
<svg width="11px" height="14px" viewBox="0 0 11 14" version="1.1" xmlns="http://www.w3.org/2000/svg" xmlns:xlink="http://www.w3.org/1999/xlink">
    <!-- Generator: Sketch 45.2 (43514) - http://www.bohemiancoding.com/sketch -->
    <title>Group 22</title>
    <desc>Created with Sketch.</desc>
    <defs></defs>
    <g id="Page-1" stroke="none" stroke-width="1" fill="none" fill-rule="evenodd">
        <g id="Group-19" transform="translate(-576.000000, -543.000000)">
            <g id="Encrypt-Screen" transform="translate(487.000000, 263.000000)">
                <g id="Body" transform="translate(33.000000, 125.000000)">
                    <g id="CTA" transform="translate(0.000000, 140.000000)">
                        <g id="Encrypt">
                            <g id="Group-22" transform="translate(56.000000, 15.000000)">
                                <path d="M10.2196623,5.65378144 L9.9408002,5.65378144 L9.9408002,4.37704039 C9.9408002,2.0156102 8.02513726,0.042972225 5.63078646,0.000862896085 C5.56536383,-0.000287632028 5.43463617,-0.000287632028 5.36924294,0.000862896085 C2.97483334,0.042972225 1.0591998,2.0156102 1.0591998,4.37704039 L1.0591998,5.65378144 L0.780308255,5.65378144 C0.350547706,5.65378144 0,6.08758806 0,6.62336024 L0,13.0269696 C0,13.5621378 0.350547706,14 0.780337658,14 L10.2196623,14 C10.6494229,14 11,13.5621378 11,13.0269696 L11,6.62336024 C11,6.08761682 10.6494523,5.65378144 10.2196623,5.65378144 Z M6.38433759,9.81866444 L6.38433759,11.7535939 C6.38433759,11.9751568 6.19471487,12.1626641 5.96804382,12.1626641 L5.03201499,12.1626641 C4.80531454,12.1626641 4.61569181,11.9751568 4.61569181,11.7535939 L4.61569181,9.81866444 C4.39584235,9.60696727 4.26784922,9.31424415 4.26784922,8.99042802 C4.26784922,8.37679385 4.7527412,7.84950681 5.36927235,7.82514438 C5.43460677,7.82255569 5.56548144,7.82255569 5.63081587,7.82514438 C6.24734701,7.84950681 6.73223899,8.37679385 6.73223899,8.99042802 C6.73218018,9.31424415 6.60418705,9.60696727 6.38433759,9.81866444 Z M8.10279172,5.65378144 L5.63078646,5.65378144 L5.36924294,5.65378144 L2.89723768,5.65378144 L2.89723768,4.37704039 C2.89723768,2.97037596 4.06584765,1.80727832 5.5,1.80727832 C6.93415235,1.80727832 8.10282113,2.97037596 8.10282113,4.37704039 L8.10282113,5.65378144 L8.10279172,5.65378144 Z" id="Shape" fill="#FFFFFF" fill-rule="nonzero"></path>
                                <polygon id="Rectangle-9" fill="#11B5E4" points="7.79342355 3.20926309 10.2486276 3.20926309 10 5.65646362 8 5.65646362"></polygon>
                            </g>
                        </g>
                    </g>
                </g>
            </g>
        </g>
    </g>
</svg>